<svg width="12" height="12" viewBox="0 0 12 12" fill="none" xmlns="http://www.w3.org/2000/svg">
<path d="M1.5 2.2515C1.50001 2.11395 1.53784 1.97906 1.60935 1.86156C1.68087 1.74407 1.78332 1.64851 1.9055 1.58533C2.02768 1.52215 2.16488 1.49378 2.3021 1.50334C2.43931 1.51289 2.57126 1.56 2.6835 1.6395L7.9335 5.36175C8.03102 5.43071 8.11067 5.52196 8.1658 5.62792C8.22094 5.73387 8.24997 5.85146 8.25048 5.9709C8.251 6.09034 8.22298 6.20817 8.16875 6.3146C8.11453 6.42102 8.03568 6.51296 7.93875 6.58275L2.68875 10.3605C2.57675 10.4413 2.44462 10.4896 2.30692 10.5001C2.16922 10.5105 2.03131 10.4828 1.90837 10.4199C1.78543 10.357 1.68225 10.2614 1.61019 10.1436C1.53814 10.0258 1.5 9.89035 1.5 9.75225V2.2515ZM10.5 1.875C10.5 1.77554 10.4605 1.68016 10.3902 1.60984C10.3198 1.53951 10.2245 1.5 10.125 1.5C10.0255 1.5 9.93016 1.53951 9.85983 1.60984C9.78951 1.68016 9.75 1.77554 9.75 1.875V10.125C9.75 10.2245 9.78951 10.3198 9.85983 10.3902C9.93016 10.4605 10.0255 10.5 10.125 10.5C10.2245 10.5 10.3198 10.4605 10.3902 10.3902C10.4605 10.3198 10.5 10.2245 10.5 10.125V1.875Z" fill="black" fill-opacity="0.7"/>
</svg>
