<svg width="12" height="12" viewBox="0 0 12 12" fill="none" xmlns="http://www.w3.org/2000/svg">
<path d="M10.5 9.7485C10.5 9.88605 10.4622 10.0209 10.3906 10.1384C10.3191 10.2559 10.2167 10.3515 10.0945 10.4147C9.97232 10.4779 9.83512 10.5062 9.6979 10.4967C9.56069 10.4871 9.42874 10.44 9.3165 10.3605L4.0665 6.63825C3.96898 6.56929 3.88933 6.47804 3.8342 6.37208C3.77906 6.26613 3.75003 6.14854 3.74952 6.0291C3.749 5.90966 3.77702 5.79183 3.83125 5.6854C3.88547 5.57898 3.96432 5.48704 4.06125 5.41725L9.31125 1.6395C9.42325 1.55871 9.55538 1.51042 9.69308 1.49994C9.83078 1.48946 9.96869 1.5172 10.0916 1.5801C10.2146 1.643 10.3178 1.73863 10.3898 1.85643C10.4619 1.97424 10.5 2.10965 10.5 2.24775V9.7485ZM1.5 10.125C1.5 10.2245 1.53951 10.3198 1.60983 10.3902C1.68016 10.4605 1.77554 10.5 1.875 10.5C1.97446 10.5 2.06984 10.4605 2.14017 10.3902C2.21049 10.3198 2.25 10.2245 2.25 10.125V1.875C2.25 1.77554 2.21049 1.68016 2.14017 1.60983C2.06984 1.53951 1.97446 1.5 1.875 1.5C1.77554 1.5 1.68016 1.53951 1.60983 1.60983C1.53951 1.68016 1.5 1.77554 1.5 1.875V10.125Z" fill="black" fill-opacity="0.7"/>
</svg>
