<svg width="15" height="15" viewBox="0 0 15 15" fill="none" xmlns="http://www.w3.org/2000/svg">
<g filter="url(#filter0_d_222_911)">
<path d="M8.12392 8.84161C8.53722 8.84161 8.88887 8.69856 9.17887 8.41246C9.46887 8.12626 9.61387 7.77596 9.61387 7.36156V3.74161H11.3738V2.74156H9.01387V6.21166C8.89717 6.11826 8.76277 6.04656 8.61067 5.99656C8.45857 5.94656 8.29632 5.92156 8.12392 5.92156C7.72352 5.92156 7.38507 6.06111 7.10857 6.34021C6.83207 6.61941 6.69382 6.96111 6.69382 7.36531C6.69382 7.76951 6.83207 8.11661 7.10857 8.40661C7.38507 8.69661 7.72352 8.84161 8.12392 8.84161ZM4.96387 10.7717C4.69387 10.7717 4.45972 10.6725 4.26142 10.4741C4.06302 10.2758 3.96382 10.0416 3.96382 9.77161V1.77166C3.96382 1.50166 4.06302 1.26746 4.26142 1.06906C4.45972 0.870757 4.69387 0.771606 4.96387 0.771606H12.9638C13.2338 0.771606 13.468 0.870757 13.6664 1.06906C13.8647 1.26746 13.9639 1.50166 13.9639 1.77166V9.77161C13.9639 10.0416 13.8647 10.2758 13.6664 10.4741C13.468 10.6725 13.2338 10.7717 12.9638 10.7717H4.96387ZM4.96387 9.77161H12.9638V1.77166H4.96387V9.77161ZM2.96392 12.7716C2.69392 12.7716 2.45972 12.6725 2.26132 12.4742C2.06302 12.2758 1.96387 12.0416 1.96387 11.7716V2.77156H2.96392V11.7716H11.9639V12.7716H2.96392Z" fill="#D9D9D9"/>
</g>
<defs>
<filter id="filter0_d_222_911" x="0.963867" y="0.771606" width="14" height="14" filterUnits="userSpaceOnUse" color-interpolation-filters="sRGB">
<feFlood flood-opacity="0" result="BackgroundImageFix"/>
<feColorMatrix in="SourceAlpha" type="matrix" values="0 0 0 0 0 0 0 0 0 0 0 0 0 0 0 0 0 0 127 0" result="hardAlpha"/>
<feOffset dy="1"/>
<feGaussianBlur stdDeviation="0.5"/>
<feComposite in2="hardAlpha" operator="out"/>
<feColorMatrix type="matrix" values="0 0 0 0 0 0 0 0 0 0 0 0 0 0 0 0 0 0 0.25 0"/>
<feBlend mode="normal" in2="BackgroundImageFix" result="effect1_dropShadow_222_911"/>
<feBlend mode="normal" in="SourceGraphic" in2="effect1_dropShadow_222_911" result="shape"/>
</filter>
</defs>
</svg>
