<svg width="24" height="24" viewBox="0 0 24 24" fill="none" xmlns="http://www.w3.org/2000/svg">
<path d="M20.9444 8.99996C21.203 8.99999 21.4525 9.08991 21.6457 9.25267C21.8389 9.41543 21.9624 9.6397 21.9926 9.88296L22 9.99996V15C22 16.0262 21.5837 17.0132 20.8371 17.7568C20.0905 18.5003 19.0708 18.9436 17.9889 18.995L17.7778 19H8.39072L8.36961 19.415L8.33372 19.934C8.30522 20.28 7.96217 20.491 7.66767 20.344L7.34467 20.18L6.96467 19.977L6.75567 19.86L6.30178 19.597C6.22086 19.5485 6.14029 19.4995 6.06006 19.45L5.57133 19.14L5.34967 18.993L4.95172 18.72L4.61922 18.48C4.57224 18.4455 4.52544 18.4109 4.47883 18.376C4.22972 18.188 4.24133 17.81 4.50311 17.614L4.79867 17.397L5.15756 17.145L5.57978 16.863L6.06111 16.558L6.54878 16.267L6.98789 16.018L7.37317 15.813L7.69722 15.648C7.9875 15.505 8.29994 15.684 8.32844 16.008L8.35483 16.355L8.38017 16.77L8.39072 17H17.7778C18.3104 17.0001 18.8234 16.8095 19.2139 16.4665C19.6044 16.1234 19.8437 15.6531 19.8836 15.15L19.8889 15V9.99996C19.8889 9.73474 20.0001 9.48038 20.1981 9.29285C20.396 9.10531 20.6645 8.99996 20.9444 8.99996ZM17.3323 3.65496L17.6553 3.81995L18.0353 4.02295L18.2443 4.13995L18.6982 4.40295L18.9399 4.54996L19.4287 4.85996L19.6503 5.00696L20.0483 5.27996L20.3808 5.51996L20.5212 5.62396C20.7703 5.81196 20.7587 6.18996 20.4969 6.38596L20.2013 6.60296L19.8424 6.85496L19.4202 7.13696L18.9389 7.44196L18.4512 7.73295L18.0121 7.98196L17.6268 8.18696L17.3028 8.35196C17.0125 8.49496 16.699 8.31596 16.6716 7.99196L16.6452 7.64496L16.6198 7.22996C16.6159 7.1533 16.6124 7.07664 16.6093 6.99996H7.22222C6.66232 6.99996 6.12535 7.21067 5.72944 7.58574C5.33353 7.96081 5.11111 8.46952 5.11111 8.99996V14C5.11111 14.2652 4.9999 14.5195 4.80195 14.7071C4.60399 14.8946 4.33551 15 4.05556 15C3.7756 15 3.50712 14.8946 3.30917 14.7071C3.11121 14.5195 3 14.2652 3 14V8.99996C3 7.93909 3.44484 6.92167 4.23666 6.17153C5.02848 5.42138 6.10242 4.99996 7.22222 4.99996H16.6093L16.6304 4.58496L16.6536 4.22495L16.6663 4.06596C16.6948 3.71996 17.0378 3.50796 17.3323 3.65496Z" fill="white"/>
</svg>
