<svg width="17" height="16" viewBox="0 0 17 16" fill="none" xmlns="http://www.w3.org/2000/svg">
<path d="M2.84538 11.6737C2.95566 11.7854 3.04017 11.9202 3.09288 12.0686C3.14558 12.2169 3.1652 12.3752 3.15031 12.5321C3.07546 13.2581 2.93389 13.9756 2.72744 14.6752C4.20963 14.3291 5.11488 13.9283 5.52606 13.7183C5.75928 13.5992 6.02787 13.5709 6.28044 13.639C7.00432 13.8344 7.75064 13.9324 8.5 13.9305C12.7458 13.9305 15.9375 10.9226 15.9375 7.50103C15.9375 4.07949 12.7458 1.07158 8.5 1.07158C4.25425 1.07158 1.0625 4.08056 1.0625 7.50103C1.0625 9.0741 1.71806 10.5336 2.84538 11.6737ZM2.32156 15.8582C2.06981 15.9085 1.81726 15.9546 1.564 15.9965C1.3515 16.0308 1.19 15.8079 1.27394 15.6086C1.36803 15.3841 1.45449 15.1564 1.53319 14.926L1.53637 14.9153C1.79987 14.1437 2.0145 13.2565 2.09313 12.4303C0.789438 11.1122 0 9.387 0 7.50103C0 3.35832 3.80587 0 8.5 0C13.1941 0 17 3.35832 17 7.50103C17 11.6437 13.1941 15.0021 8.5 15.0021C7.65808 15.004 6.8196 14.8937 6.00631 14.6742C5.45381 14.956 4.26487 15.4693 2.32156 15.8582Z" fill="white"/>
</svg>
