<svg width="14" height="17" viewBox="0 0 14 17" fill="none" xmlns="http://www.w3.org/2000/svg">
<path d="M14 8.5C14.0005 8.72199 13.9451 8.94035 13.8392 9.13383C13.7333 9.32731 13.5804 9.48933 13.3955 9.60413L1.93455 16.8075C1.74132 16.9291 1.52001 16.9955 1.29347 16.9998C1.06693 17.0041 0.843384 16.9462 0.645909 16.8321C0.450315 16.7197 0.287379 16.5558 0.173858 16.3573C0.0603364 16.1588 0.000326819 15.9328 0 15.7026V1.29741C0.000326819 1.06718 0.0603364 0.841184 0.173858 0.642676C0.287379 0.444167 0.450315 0.280308 0.645909 0.167948C0.843384 0.0538152 1.06693 -0.00408596 1.29347 0.000224215C1.52001 0.00453439 1.74132 0.0708997 1.93455 0.192466L13.3955 7.39587C13.5804 7.51067 13.7333 7.67269 13.8392 7.86617C13.9451 8.05965 14.0005 8.27801 14 8.5Z" fill="white"/>
</svg>
