<svg width="17" height="19" viewBox="0 0 17 19" fill="none" xmlns="http://www.w3.org/2000/svg">
<path d="M11.1657 13.5449L11.2045 13.5701L11.2326 13.5334C11.5322 13.142 11.9126 12.8255 12.3455 12.6073C12.7784 12.389 13.2529 12.2744 13.734 12.2719C14.3696 12.2719 14.9911 12.4675 15.52 12.8341C16.0488 13.2008 16.4613 13.7222 16.7049 14.3326C16.9486 14.9429 17.0124 15.6146 16.8881 16.2627C16.7639 16.9108 16.4573 17.5058 16.0074 17.9727C15.5575 18.4395 14.9845 18.7572 14.361 18.8859C13.7375 19.0146 13.0912 18.9486 12.5038 18.6961C11.9163 18.4436 11.4139 18.0159 11.0603 17.4667C10.7067 16.9176 10.5179 16.2719 10.5178 15.6112C10.521 15.3127 10.5643 15.0161 10.6465 14.7301L10.6568 14.6945L10.6257 14.6743L5.85069 11.5767L5.81189 11.5515L5.78377 11.5883C5.36847 12.1308 4.80104 12.5255 4.16034 12.718C3.51965 12.9106 2.83715 12.8916 2.20732 12.6636C1.57746 12.4356 1.03122 12.0098 0.644553 11.4449C0.257866 10.8799 0.05 10.204 0.05 9.51066C0.05 8.81735 0.257866 8.14137 0.644553 7.57644C1.03122 7.01153 1.57746 6.58574 2.20732 6.35774C2.83715 6.12976 3.51965 6.11073 4.16034 6.30329C4.80104 6.49585 5.36847 6.89056 5.78377 7.43306L5.81189 7.46979L5.85069 7.44462L10.6257 4.34703L10.6568 4.32687L10.6465 4.29126C10.5643 4.00518 10.521 3.70854 10.5178 3.40998C10.5131 2.62091 10.7776 1.85579 11.2643 1.25014C11.7509 0.6445 12.4281 0.237488 13.1756 0.10069C13.9232 -0.0361029 14.6934 0.106027 15.3499 0.502151C16.0064 0.898306 16.507 1.52307 16.7626 2.26611C17.0182 3.00918 17.0121 3.8222 16.7453 4.56102C16.4786 5.29981 15.9686 5.91637 15.3062 6.30182C14.6439 6.68724 13.8716 6.81687 13.1262 6.66797C12.3808 6.51907 11.7098 6.10112 11.2324 5.48765L11.2042 5.45144L11.1657 5.47641L6.39069 8.574L6.35928 8.59438L6.36999 8.63026C6.54123 9.20373 6.54123 9.81759 6.36999 10.3911L6.35928 10.4269L6.39069 10.4473L11.1657 13.5449ZM14.8511 1.67854C14.5206 1.44938 14.1318 1.32694 13.7339 1.32694C13.2003 1.32694 12.689 1.54691 12.3122 1.93782C11.9356 2.32867 11.7243 2.85839 11.7243 3.41037C11.7243 3.82203 11.8419 4.22459 12.0625 4.56715C12.2831 4.90973 12.5968 5.17703 12.9642 5.33495C13.3317 5.49288 13.7361 5.53423 14.1263 5.4537C14.5165 5.37316 14.8747 5.17442 15.1556 4.88292C15.4365 4.59143 15.6276 4.22028 15.705 3.81649C15.7824 3.4127 15.7427 2.99414 15.5908 2.61367C15.439 2.23319 15.1816 1.90769 14.8511 1.67854ZM2.16525 11.2425C2.49578 11.4717 2.88458 11.5941 3.28247 11.5941C3.81607 11.5941 4.32742 11.3741 4.70415 10.9832C5.08082 10.5924 5.29211 10.0626 5.29211 9.51066C5.29211 9.099 5.17448 8.69644 4.95389 8.35388C4.73329 8.01129 4.41955 7.744 4.05213 7.58608C3.68469 7.42815 3.28026 7.38679 2.89005 7.46733C2.49986 7.54787 2.14171 7.74661 1.86078 8.03811C1.57988 8.32959 1.38877 8.70075 1.31137 9.10454C1.23396 9.50833 1.27367 9.92689 1.42555 10.3074C1.57743 10.6878 1.83475 11.0133 2.16525 11.2425ZM12.6167 17.3428C12.9472 17.5719 13.336 17.6944 13.7339 17.6944C14.2675 17.6944 14.7789 17.4744 15.1556 17.0835C15.5323 16.6926 15.7436 16.1629 15.7436 15.6109C15.7436 15.1993 15.6259 14.7967 15.4053 14.4542C15.1847 14.1116 14.871 13.8443 14.5036 13.6864C14.1361 13.5284 13.7317 13.4871 13.3415 13.5676C12.9513 13.6482 12.5932 13.8469 12.3122 14.1384C12.0313 14.4299 11.8402 14.801 11.7628 15.2048C11.6854 15.6086 11.7251 16.0272 11.877 16.4076C12.0289 16.7881 12.2862 17.1136 12.6167 17.3428Z" fill="white" stroke="black" stroke-width="0.1"/>
</svg>
