<svg width="17" height="15" viewBox="0 0 17 15" fill="none" xmlns="http://www.w3.org/2000/svg">
<path d="M12.2946 0C10.7275 0 9.35531 0.693913 8.5 1.86685C7.64469 0.693913 6.27254 0 4.70536 0C3.45785 0.00144779 2.26184 0.512355 1.37972 1.42064C0.497599 2.32892 0.0014061 3.56039 0 4.84489C0 10.3149 7.87692 14.7425 8.21237 14.9254C8.30078 14.9744 8.39961 15 8.5 15C8.60039 15 8.69922 14.9744 8.78763 14.9254C9.12308 14.7425 17 10.3149 17 4.84489C16.9986 3.56039 16.5024 2.32892 15.6203 1.42064C14.7382 0.512355 13.5422 0.00144779 12.2946 0Z" fill="#8236E2"/>
</svg>
